<svg id="svg" version="1.1" xmlns="http://www.w3.org/2000/svg" xmlns:xlink="http://www.w3.org/1999/xlink" width="400" height="400" viewBox="0, 0, 400,400"><g id="svgg"><path id="path0" d="M131.899 50.596 C 7.088 113.036,7.265 289.038,132.200 351.469 C 155.138 362.931,184.181 368.288,183.874 361.000 C 183.566 353.694,164.482 337.348,148.000 330.274 C 24.519 277.277,41.076 94.471,172.233 62.711 C 180.842 60.626,184.475 62.845,195.115 76.690 C 209.365 95.231,209.063 97.987,192.411 101.318 C 178.865 104.027,153.540 124.845,149.922 136.246 C 148.401 141.038,143.848 144.000,138.003 144.000 C 132.129 144.000,125.410 148.402,120.272 155.617 C 109.100 171.307,109.471 172.000,129.038 172.000 C 140.932 172.000,147.396 174.113,150.449 179.000 C 154.403 185.328,153.151 185.865,137.411 184.597 C 117.185 182.968,115.761 186.554,131.000 200.751 C 140.202 209.324,147.006 211.353,172.635 213.163 C 218.841 216.428,231.586 225.633,192.000 227.149 C 166.570 228.124,160.947 229.647,155.089 237.149 C 143.101 252.501,146.046 254.076,183.998 252.602 C 238.878 250.471,231.189 277.930,175.491 282.981 C 144.665 285.776,144.790 291.105,176.647 332.203 L 201.294 364.000 224.008 364.000 C 341.528 364.000,408.277 199.493,331.837 98.249 C 308.499 67.338,252.932 33.805,229.923 36.748 L 220.137 38.000 230.276 50.895 C 235.852 57.987,251.904 69.273,265.947 75.975 C 379.649 130.240,355.865 316.451,232.445 338.268 C 222.066 340.103,191.153 307.230,199.035 302.740 C 200.666 301.811,208.660 298.904,216.800 296.281 C 232.224 291.311,256.000 268.007,256.000 257.861 C 256.000 254.041,260.099 252.000,267.773 252.000 C 275.405 252.000,281.737 248.873,285.773 243.110 C 296.142 228.307,293.758 224.525,275.595 226.962 C 263.992 228.518,258.156 227.528,255.656 223.581 C 249.231 213.433,251.825 211.143,268.000 212.686 C 286.769 214.476,288.348 209.860,274.191 194.584 C 265.187 184.869,261.802 184.000,232.956 184.000 C 211.516 184.000,199.062 182.134,193.765 178.127 C 186.702 172.785,188.602 172.243,214.773 172.127 C 239.893 172.016,244.337 170.871,249.773 163.110 C 261.731 146.038,258.557 144.000,220.000 144.000 C 181.213 144.000,178.654 142.417,194.055 127.949 C 201.659 120.805,209.946 118.080,228.055 116.771 C 260.658 114.412,260.557 105.674,227.462 65.665 L 202.924 36.000 181.999 36.000 C 165.920 36.000,154.319 39.380,131.899 50.596 " stroke="none" fill="#000000" fill-rule="evenodd"></path></g></svg>